<svg width="64" height="64" viewBox="0 0 64 64" fill="none" xmlns="http://www.w3.org/2000/svg">
  <path d="M18 43C18 31.9543 26.9543 23 38 23C49.0457 23 58 31.9543 58 43V44H18V43Z" fill="#FDBA74"/>
  <path d="M9 47C9 43.6863 11.6863 41 15 41H45C51.6274 41 57 46.3726 57 53V55H9V47Z" fill="#FB923C"/>
  <path d="M8 53C8 51.3431 9.34315 50 11 50H55C56.6569 50 58 51.3431 58 53V55H8V53Z" fill="#EA580C"/>
  <path d="M38.762 25.314C39.8227 25.6816 40.3845 26.8404 40.0169 27.9011L32.1126 50.7102C31.745 51.7709 30.5862 52.3327 29.5255 51.9651C28.4648 51.5975 27.903 50.4387 28.2706 49.378L36.1749 26.5689C36.5425 25.5082 37.7013 24.9464 38.762 25.314Z" fill="#C2410C"/>
  <path d="M37.2847 18.2435C39.3662 17.7188 41.5597 18.3766 43.0287 20.0093L38.5807 25.3464L37.2847 18.2435Z" fill="#F97316"/>
  <path d="M43.5448 20.8633C45.7595 20.628 47.9355 21.5226 49.3463 23.2568L40.6619 27.3886L43.5448 20.8633Z" fill="#EA580C"/>
  <path d="M40.4894 26.1624C42.7655 26.1267 44.8772 27.3191 46.0229 29.2858L37.0196 30.6089L40.4894 26.1624Z" fill="#FB923C"/>
  <path d="M35.2755 24.6331C33.9992 22.741 33.7882 20.2811 34.9205 18.1914L40.8344 24.2612L35.2755 24.6331Z" fill="#FB923C"/>
  <path d="M35.8821 29.5098C33.6658 29.7687 31.4746 28.8931 30.0482 27.1666L38.6886 22.9443L35.8821 29.5098Z" fill="#F97316"/>
  <path d="M18.2269 34.0717C18.7879 33.5549 19.6386 33.5747 20.1754 34.1158L26.7545 40.7475C27.2912 41.2886 27.3108 42.146 26.7499 42.6629C26.1889 43.1798 25.3382 43.16 24.8014 42.6188L18.2224 35.9872C17.6856 35.446 17.6659 34.5886 18.2269 34.0717Z" fill="#C2410C"/>
  <path d="M14 35C14 31.6863 16.6863 29 20 29C23.3137 29 26 31.6863 26 35V35.5H14V35Z" fill="#F97316"/>
  <path d="M18.75 35H21.25V44C21.25 44.6904 20.6904 45.25 20 45.25C19.3096 45.25 18.75 44.6904 18.75 44V35Z" fill="#EA580C"/>
  <path d="M12 46.5C12 45.6716 12.6716 45 13.5 45H26.5C27.3284 45 28 45.6716 28 46.5C28 47.3284 27.3284 48 26.5 48H13.5C12.6716 48 12 47.3284 12 46.5Z" fill="#FED7AA"/>
  <path d="M43 16.5C43 15.6716 43.6716 15 44.5 15H48.5C49.3284 15 50 15.6716 50 16.5C50 17.3284 49.3284 18 48.5 18H44.5C43.6716 18 43 17.3284 43 16.5Z" fill="#FDBA74"/>
  <path d="M51.232 20.768C50.6462 20.1822 50.6462 19.2324 51.232 18.6466L53.3533 16.5253C53.9391 15.9395 54.8888 15.9395 55.4746 16.5253C56.0604 17.1111 56.0604 18.0609 55.4746 18.6466L53.3533 20.768C52.7675 21.3537 51.8178 21.3537 51.232 20.768Z" fill="#FDBA74"/>
  <path d="M49.232 13.3534C48.6462 12.7676 48.6462 11.8178 49.232 11.232C49.8178 10.6462 50.7675 10.6462 51.3533 11.232L52.414 12.2927C52.9998 12.8785 52.9998 13.8283 52.414 14.4141C51.8282 14.9999 50.8785 14.9999 50.2927 14.4141L49.232 13.3534Z" fill="#FDBA74"/>
</svg>
