<svg width="96" height="96" viewBox="0 0 96 96" fill="none" xmlns="http://www.w3.org/2000/svg">
  <defs>
    <radialGradient id="waterGrad" cx="0" cy="0" r="1" gradientUnits="userSpaceOnUse" gradientTransform="translate(46 68) rotate(90) scale(23 34)">
      <stop offset="0" stop-color="#E8FFFC"/>
      <stop offset="0.45" stop-color="#94F4F0"/>
      <stop offset="1" stop-color="#64DCE6"/>
    </radialGradient>
    <linearGradient id="sandGrad" x1="29" y1="51" x2="72" y2="76" gradientUnits="userSpaceOnUse">
      <stop offset="0" stop-color="#FFF6A5"/>
      <stop offset="0.55" stop-color="#FFD84E"/>
      <stop offset="1" stop-color="#F6A019"/>
    </linearGradient>
    <linearGradient id="poleGrad" x1="0" y1="35" x2="0" y2="69" gradientUnits="userSpaceOnUse">
      <stop offset="0" stop-color="#7A3A0F"/>
      <stop offset="0.35" stop-color="#B46418"/>
      <stop offset="0.7" stop-color="#F39A2D"/>
      <stop offset="1" stop-color="#CE6E18"/>
    </linearGradient>
    <linearGradient id="canopyCream" x1="31" y1="15" x2="60" y2="42" gradientUnits="userSpaceOnUse">
      <stop offset="0" stop-color="#FFF9D0"/>
      <stop offset="0.7" stop-color="#F6E7A4"/>
      <stop offset="1" stop-color="#D5C17A"/>
    </linearGradient>
    <linearGradient id="canopyRed" x1="32" y1="16" x2="61" y2="41" gradientUnits="userSpaceOnUse">
      <stop offset="0" stop-color="#FF5B4D"/>
      <stop offset="0.7" stop-color="#FF1B14"/>
      <stop offset="1" stop-color="#D10C0C"/>
    </linearGradient>
    <filter id="shadowSoft" x="10" y="54" width="78" height="31" filterUnits="userSpaceOnUse" color-interpolation-filters="sRGB">
      <feGaussianBlur stdDeviation="3.2"/>
    </filter>
    <filter id="shadowUmbrella" x="4" y="10" width="82" height="39" filterUnits="userSpaceOnUse" color-interpolation-filters="sRGB">
      <feGaussianBlur stdDeviation="1.6"/>
    </filter>
    <filter id="shadowPole" x="36" y="34" width="18" height="39" filterUnits="userSpaceOnUse" color-interpolation-filters="sRGB">
      <feGaussianBlur stdDeviation="1.2"/>
    </filter>
    <clipPath id="canopyClip">
      <path d="M9 36C12 27 18 20 28 16C35 13 43 12 49 13C59 15 69 20 77 32C70 31 63 33 55 37C48 40 40 42 31 41C22 40 15 39 9 36Z"/>
    </clipPath>
  </defs>

  <ellipse cx="49" cy="76" rx="29" ry="7" fill="#000000" opacity="0.12" filter="url(#shadowSoft)"/>

  <ellipse cx="48" cy="72" rx="34" ry="15" fill="url(#waterGrad)"/>
  <ellipse cx="48" cy="70" rx="28" ry="11" fill="#B3FCF6" opacity="0.42"/>

  <path d="M20 68C22 59 31 53 46 53C62 53 75 58 80 67C81 69 80 72 76 73H23C20 73 19 70 20 68Z" fill="url(#sandGrad)"/>
  <path d="M24 70C31 67 39 68 47 67C55 66 63 67 72 70" stroke="#FFFDEB" stroke-width="4.8" stroke-linecap="round"/>
  <path d="M20 68C22 59 31 53 46 53C62 53 75 58 80 67" stroke="#FFE186" stroke-width="1.3" stroke-linecap="round" opacity="0.7"/>

  <ellipse cx="60" cy="63" rx="16" ry="4.5" fill="#000000" opacity="0.12" filter="url(#shadowSoft)"/>

  <ellipse cx="46" cy="41" rx="23" ry="5" fill="#000000" opacity="0.14" filter="url(#shadowUmbrella)"/>
  <rect x="43.5" y="34" width="6" height="34" rx="3" fill="url(#poleGrad)" transform="rotate(8 43.5 34)"/>
  <rect x="45.3" y="36.2" width="1.4" height="29" rx="0.7" fill="#FFD08B" opacity="0.8" transform="rotate(8 45.3 36.2)"/>
  <rect x="43.6" y="34.8" width="6" height="34" rx="3" fill="#000000" opacity="0.08" filter="url(#shadowPole)" transform="rotate(8 43.6 34.8)"/>

  <g clip-path="url(#canopyClip)">
    <path d="M7 37C12 26 19 19 29 15C37 12 46 12 52 13C63 15 71 20 79 33L77 35C69 33 62 35 55 38C48 40 40 42 31 41C22 40 14 39 9 36L7 37Z" fill="url(#canopyCream)"/>
    <path d="M10 36L28 15L44 39C34 41 21 40 10 36Z" fill="url(#canopyRed)"/>
    <path d="M28 15L47 13L44 39L29 40L28 15Z" fill="url(#canopyCream)"/>
    <path d="M47 13L64 17L57 38L44 39L47 13Z" fill="url(#canopyRed)"/>
    <path d="M64 17L79 33L57 38L64 17Z" fill="url(#canopyCream)"/>
    <path d="M40 13.8L48 13L47.1 18.5L40 13.8Z" fill="#FF3A2D"/>
    <path d="M47 13L60 14.6L70 20.4L66.8 21.4C61.2 18.1 54.6 15.9 47 13Z" fill="#FF3A2D"/>
  </g>

  <path d="M9 36C12 27 18 20 28 16C35 13 43 12 49 13C59 15 69 20 77 32" stroke="#F7E8A6" stroke-width="1.1" stroke-linecap="round" opacity="0.8"/>
  <path d="M47 13C44 16 42.8 19 42 22" stroke="#FF7B6C" stroke-width="1" stroke-linecap="round" opacity="0.9"/>
  <circle cx="47" cy="13.4" r="1.7" fill="#FF5447"/>
</svg>
